<svg width="256" height="256" viewBox="0 0 256 256" fill="none" xmlns="http://www.w3.org/2000/svg">
<path fill-rule="evenodd" clip-rule="evenodd" d="M0 144.815V206C0 233.614 22.3858 256 50 256H111.185L0 144.815ZM144.446 256H206C233.614 256 256 233.614 256 206V144.446L144.446 256ZM256 111.185V50C256 22.3858 233.614 0 206 0H144.815L256 111.185ZM110.815 0H50C22.3858 0 0 22.3858 0 50V110.815L110.815 0Z" fill="white"/>
<path d="M81.8847 187.16C73.3568 191.276 64.416 182.335 68.5321 173.807L85.276 139.116C87.1247 135.286 86.3485 130.706 83.3412 127.698L55.4356 99.7928C48.4643 92.8214 54.7206 81.0352 64.401 82.9027L100.763 89.9179C105.217 90.7772 109.691 88.5309 111.663 84.4457L127.496 51.6426C131.68 42.973 144.497 44.6428 146.321 54.095L153.979 93.7888C154.753 97.8014 157.891 100.939 161.903 101.713L201.597 109.371C211.049 111.195 212.719 124.012 204.049 128.196L171.246 144.029C167.161 146.001 164.915 150.475 165.774 154.929L172.789 191.291C174.657 200.971 162.871 207.228 155.899 200.256L127.994 172.351C124.986 169.343 120.406 168.567 116.576 170.416L81.8847 187.16Z" fill="white"/>
</svg>
