<svg width="679" height="128" viewBox="0 0 679 128" fill="none" xmlns="http://www.w3.org/2000/svg">
<path d="M0 72.4077V103C0 116.807 11.1929 128 25 128H55.5923L0 72.4077Z" fill="url(#paint0_linear_47_8)"/>
<path d="M72.2232 128H103C116.807 128 128 116.807 128 103V72.2232L72.2232 128Z" fill="url(#paint1_linear_47_8)"/>
<path d="M128 55.5923V25C128 11.1929 116.807 0 103 0H72.4077L128 55.5923Z" fill="url(#paint2_linear_47_8)"/>
<path d="M55.4077 0H25C11.1929 0 0 11.1929 0 25V55.4077L55.4077 0Z" fill="url(#paint3_linear_47_8)"/>
<path d="M40.9424 93.5799C36.6784 95.638 32.208 91.1676 34.266 86.9036L42.638 69.5581C43.5623 67.643 43.1743 65.3528 41.6706 63.8492L27.7178 49.8964C24.2322 46.4107 27.3603 40.5176 32.2005 41.4514L50.3815 44.9589C52.6085 45.3886 54.8457 44.2654 55.8316 42.2228L63.7479 25.8213C65.8402 21.4865 72.2486 22.3214 73.1603 27.0475L76.9893 46.8944C77.3764 48.9007 78.9453 50.4696 80.9516 50.8567L100.798 54.6856C105.525 55.5974 106.359 62.0058 102.025 64.0981L85.6231 72.0144C83.5805 73.0003 82.4574 75.2375 82.887 77.4645L86.3946 95.6455C87.3284 100.486 81.4353 103.614 77.9496 100.128L63.9968 86.1754C62.4932 84.6717 60.203 84.2836 58.2879 85.208L40.9424 93.5799Z" fill="url(#paint4_linear_47_8)"/>
<path d="M189.585 70.6818V110.5H167.358V17.4091H188.858V53.5H189.631C191.206 49.197 193.782 45.8333 197.358 43.4091C200.964 40.9848 205.373 39.7727 210.585 39.7727C215.494 39.7727 219.767 40.8636 223.403 43.0455C227.04 45.197 229.858 48.2424 231.858 52.1818C233.888 56.1212 234.888 60.7273 234.858 66V110.5H212.631V70.3636C212.661 66.4848 211.691 63.4545 209.722 61.2727C207.752 59.0909 204.979 58 201.403 58C199.07 58 197.009 58.5152 195.222 59.5455C193.464 60.5455 192.085 61.9848 191.085 63.8636C190.116 65.7424 189.616 68.0151 189.585 70.6818ZM281.369 111.818C274.066 111.818 267.763 110.379 262.46 107.5C257.188 104.591 253.127 100.455 250.278 95.0909C247.46 89.697 246.051 83.2879 246.051 75.8636C246.051 68.6515 247.475 62.3485 250.324 56.9545C253.172 51.5303 257.188 47.3182 262.369 44.3182C267.551 41.2879 273.657 39.7727 280.688 39.7727C285.657 39.7727 290.203 40.5455 294.324 42.0909C298.445 43.6364 302.006 45.9242 305.006 48.9545C308.006 51.9848 310.339 55.7273 312.006 60.1818C313.672 64.6061 314.506 69.6818 314.506 75.4091V80.9545H253.824V68.0455H293.824C293.794 65.6818 293.233 63.5758 292.142 61.7273C291.051 59.8788 289.551 58.4394 287.642 57.4091C285.763 56.3485 283.597 55.8182 281.142 55.8182C278.657 55.8182 276.43 56.3788 274.46 57.5C272.491 58.5909 270.93 60.0909 269.778 62C268.627 63.8788 268.021 66.0151 267.96 68.4091V81.5455C267.96 84.3939 268.521 86.8939 269.642 89.0455C270.763 91.1667 272.354 92.8182 274.415 94C276.475 95.1818 278.93 95.7727 281.778 95.7727C283.748 95.7727 285.536 95.5 287.142 94.9545C288.748 94.4091 290.127 93.6061 291.278 92.5455C292.43 91.4848 293.294 90.1818 293.869 88.6364L314.278 89.2273C313.43 93.803 311.566 97.7879 308.688 101.182C305.839 104.545 302.097 107.167 297.46 109.045C292.824 110.894 287.46 111.818 281.369 111.818ZM345.54 111.682C341.085 111.682 337.131 110.939 333.676 109.455C330.252 107.939 327.54 105.667 325.54 102.636C323.57 99.5758 322.585 95.7424 322.585 91.1364C322.585 87.2576 323.267 83.9848 324.631 81.3182C325.994 78.6515 327.873 76.4848 330.267 74.8182C332.661 73.1515 335.419 71.8939 338.54 71.0455C341.661 70.1667 344.994 69.5758 348.54 69.2727C352.509 68.9091 355.706 68.5303 358.131 68.1364C360.555 67.7121 362.313 67.1212 363.403 66.3636C364.525 65.5758 365.085 64.4697 365.085 63.0455V62.8182C365.085 60.4848 364.282 58.6818 362.676 57.4091C361.07 56.1364 358.903 55.5 356.176 55.5C353.237 55.5 350.873 56.1364 349.085 57.4091C347.297 58.6818 346.161 60.4394 345.676 62.6818L325.176 61.9545C325.782 57.7121 327.343 53.9242 329.858 50.5909C332.403 47.2273 335.888 44.5909 340.312 42.6818C344.767 40.7424 350.116 39.7727 356.358 39.7727C360.813 39.7727 364.919 40.303 368.676 41.3636C372.434 42.3939 375.706 43.9091 378.494 45.9091C381.282 47.8788 383.434 50.303 384.949 53.1818C386.494 56.0606 387.267 59.3485 387.267 63.0455V110.5H366.358V100.773H365.812C364.57 103.136 362.979 105.136 361.04 106.773C359.131 108.409 356.873 109.636 354.267 110.455C351.691 111.273 348.782 111.682 345.54 111.682ZM352.403 97.1364C354.797 97.1364 356.949 96.6515 358.858 95.6818C360.797 94.7121 362.343 93.3788 363.494 91.6818C364.646 89.9545 365.222 87.9545 365.222 85.6818V79.0455C364.585 79.3788 363.813 79.6818 362.903 79.9545C362.025 80.2273 361.055 80.4848 359.994 80.7273C358.934 80.9697 357.843 81.1818 356.722 81.3636C355.6 81.5455 354.525 81.7121 353.494 81.8636C351.403 82.197 349.616 82.7121 348.131 83.4091C346.676 84.1061 345.555 85.0152 344.767 86.1364C344.009 87.2273 343.631 88.5303 343.631 90.0455C343.631 92.3485 344.449 94.1061 346.085 95.3182C347.752 96.5303 349.858 97.1364 352.403 97.1364ZM400.858 110.5V40.6818H422.449V53.4091H423.176C424.449 48.803 426.525 45.3788 429.403 43.1364C432.282 40.8636 435.631 39.7273 439.449 39.7273C440.479 39.7273 441.54 39.803 442.631 39.9545C443.722 40.0758 444.737 40.2727 445.676 40.5455V59.8636C444.616 59.5 443.222 59.2121 441.494 59C439.797 58.7879 438.282 58.6818 436.949 58.6818C434.313 58.6818 431.934 59.2727 429.812 60.4545C427.722 61.6061 426.07 63.2273 424.858 65.3182C423.676 67.3788 423.085 69.803 423.085 72.5909V110.5H400.858ZM474.778 92.1818L474.869 65.6818H477.96L497.597 40.6818H522.778L493.597 76.5H487.733L474.778 92.1818ZM454.733 110.5V17.4091H476.96V110.5H454.733ZM498.097 110.5L479.824 81.5L494.46 65.7273L523.778 110.5H498.097ZM575.778 80.3636V40.6818H597.96V110.5H576.778V97.5H576.051C574.506 101.773 571.869 105.167 568.142 107.682C564.445 110.167 559.975 111.409 554.733 111.409C549.975 111.409 545.794 110.318 542.188 108.136C538.581 105.955 535.778 102.909 533.778 99C531.778 95.0606 530.763 90.4545 530.733 85.1818V40.6818H552.96V80.8182C552.991 84.6061 553.991 87.5909 555.96 89.7727C557.93 91.9545 560.612 93.0455 564.006 93.0455C566.218 93.0455 568.203 92.5606 569.96 91.5909C571.748 90.5909 573.157 89.1515 574.188 87.2727C575.248 85.3636 575.778 83.0606 575.778 80.3636ZM673.062 62L652.653 62.5455C652.441 61.0909 651.866 59.803 650.926 58.6818C649.987 57.5303 648.759 56.6364 647.244 56C645.759 55.3333 644.032 55 642.062 55C639.487 55 637.29 55.5152 635.472 56.5455C633.684 57.5758 632.805 58.9697 632.835 60.7273C632.805 62.0909 633.35 63.2727 634.472 64.2727C635.623 65.2727 637.669 66.0758 640.608 66.6818L654.062 69.2273C661.032 70.5606 666.214 72.7727 669.608 75.8636C673.032 78.9545 674.759 83.0455 674.79 88.1364C674.759 92.9242 673.335 97.0909 670.517 100.636C667.729 104.182 663.911 106.939 659.062 108.909C654.214 110.848 648.669 111.818 642.426 111.818C632.456 111.818 624.593 109.773 618.835 105.682C613.108 101.561 609.835 96.0455 609.017 89.1364L630.972 88.5909C631.456 91.1364 632.714 93.0758 634.744 94.4091C636.775 95.7424 639.366 96.4091 642.517 96.4091C645.366 96.4091 647.684 95.8788 649.472 94.8182C651.259 93.7576 652.169 92.3485 652.199 90.5909C652.169 89.0152 651.472 87.7576 650.108 86.8182C648.744 85.8485 646.608 85.0909 643.699 84.5455L631.517 82.2273C624.517 80.9545 619.305 78.6061 615.881 75.1818C612.456 71.7273 610.759 67.3333 610.79 62C610.759 57.3333 612.002 53.3485 614.517 50.0455C617.032 46.7121 620.608 44.1667 625.244 42.4091C629.881 40.6515 635.35 39.7727 641.653 39.7727C651.108 39.7727 658.563 41.7576 664.017 45.7273C669.472 49.6667 672.487 55.0909 673.062 62Z" fill="url(#paint5_linear_47_8)"/>
<defs>
<linearGradient id="paint0_linear_47_8" x1="1.2314e-06" y1="14" x2="112.715" y2="23.0515" gradientUnits="userSpaceOnUse">
<stop offset="0.0152841" stop-color="#4A5CFF"/>
<stop offset="1" stop-color="#FF93EE"/>
</linearGradient>
<linearGradient id="paint1_linear_47_8" x1="1.2314e-06" y1="14" x2="112.715" y2="23.0515" gradientUnits="userSpaceOnUse">
<stop offset="0.0152841" stop-color="#4A5CFF"/>
<stop offset="1" stop-color="#FF93EE"/>
</linearGradient>
<linearGradient id="paint2_linear_47_8" x1="1.2314e-06" y1="14" x2="112.715" y2="23.0515" gradientUnits="userSpaceOnUse">
<stop offset="0.0152841" stop-color="#4A5CFF"/>
<stop offset="1" stop-color="#FF93EE"/>
</linearGradient>
<linearGradient id="paint3_linear_47_8" x1="1.2314e-06" y1="14" x2="112.715" y2="23.0515" gradientUnits="userSpaceOnUse">
<stop offset="0.0152841" stop-color="#4A5CFF"/>
<stop offset="1" stop-color="#FF93EE"/>
</linearGradient>
<linearGradient id="paint4_linear_47_8" x1="1.2314e-06" y1="14" x2="112.715" y2="23.0515" gradientUnits="userSpaceOnUse">
<stop offset="0.0152841" stop-color="#4A5CFF"/>
<stop offset="1" stop-color="#FF93EE"/>
</linearGradient>
<linearGradient id="paint5_linear_47_8" x1="160" y1="18.2969" x2="568.176" y2="163.698" gradientUnits="userSpaceOnUse">
<stop offset="0.0152841" stop-color="#4A5CFF"/>
<stop offset="1" stop-color="#FF93EE"/>
</linearGradient>
</defs>
</svg>
